<?xml version="1.0" encoding="UTF-8"?>
<svg viewBox="0 0 100 100" xmlns="http://www.w3.org/2000/svg">
  <title>prometheus-ceph-exporter</title>
  <path
     style="fill:#b8b8b8"
     d="M 50.000441,0 C 22.387125,0 0,22.384873 0,49.999559 0,77.613363 22.387125,100 50.000441,100 77.613758,100 100,77.613363 100,49.999559 100,22.384873 77.612875,0 50.000441,0 Z" />
  <path
     style="fill:#ffffff"
     d="m 32.808192,6.2355133 c -2.296051,0.1346202 -4.591472,4.0701907 -4.591472,7.4584627 0,3.272513 -0.910249,8.609632 -3.084613,11.532262 -0.147765,-6.311553 -2.335127,-10.348168 -4.380445,-10.510102 2.101483,5.21768 -3.724286,11.672753 -3.724286,19.059968 0,3.364861 1.349108,6.657586 3.620421,9.247243 -2.365588,-0.41947 -3.983123,-0.783106 -3.983123,-0.783106 -3.144534,-0.688061 -7.5796702,-1.644947 -7.5656245,-1.569509 0.8337723,2.2905 1.6929735,4.538071 5.3383075,8.843324 0.113666,0.133969 0.233483,0.263655 0.35116,0.395675 h 35.38319 c 4.536608,-4.54783 5.718166,-9.270974 5.717496,-9.270323 l -8.124517,1.541481 c 1e-6,0 -1.728431,0.412297 -4.230419,0.868835 2.20044,-2.529173 3.505017,-5.764682 3.505017,-9.20108 -1e-6,-5.125332 -1.283623,-7.835039 -3.401151,-11.41191 C 42.325624,20.219723 40.406957,15.608812 42.078514,11.923333 38.289427,14.849865 37.261887,23.325682 37.041909,29.135172 36.378635,26.338059 36.488201,21.926831 35.629022,19.30596 33.338318,12.328458 30.761536,9.5164809 32.808192,6.2355133 Z M 14.687951,53.14272 v 6.281331 h 35.61235 V 53.14272 Z m 7.026518,9.141729 c 0,4.770247 4.827061,8.638893 10.780481,8.638893 5.953421,0 10.780481,-3.869297 10.780481,-8.638893 z" />
  <g fill="#f0424d">
    <path
       d="m 81.040153,84.48592 c -1.363133,-0.701855 -2.141719,-1.492919 -2.314044,-2.35185 -0.166165,-0.831688 0.217177,-1.756688 1.173161,-2.828733 2.284526,-2.536404 3.542833,-5.794787 3.542833,-9.175484 0,-7.709399 -6.48158,-13.982559 -14.448867,-13.982559 -0.01298,0 -0.06372,5.43e-4 -0.06372,5.43e-4 0,0 -0.052,-5.43e-4 -0.06566,-5.43e-4 -7.967567,0 -14.448202,6.27316 -14.448202,13.982559 0,3.380697 1.258063,6.63908 3.543394,9.176568 0.963091,1.079161 1.337257,1.96672 1.177535,2.790854 -0.165778,0.858015 -0.946146,1.660058 -2.321287,2.387562 -2.108483,-1.700682 -3.972976,-3.972844 -5.123134,-6.251781 -0.623798,-1.236777 -1.103944,-2.542909 -1.427693,-3.881906 -0.333276,-1.376267 -0.500264,-2.796579 -0.500264,-4.221297 0,-2.493341 0.504115,-4.915191 1.500433,-7.195755 0.962952,-2.200264 2.339318,-4.17759 4.093877,-5.874037 1.752597,-1.697463 3.795719,-3.029345 6.070092,-3.960748 2.356123,-0.964266 4.857404,-1.452838 7.435254,-1.452838 0.01366,0 0.06372,0 0.06372,0 0,0 0.05265,0 0.06564,0 2.57785,0 5.079517,0.488572 7.435956,1.452838 2.273669,0.931403 4.316653,2.263285 6.070057,3.960748 1.753018,1.696447 3.130714,3.673773 4.093176,5.874037 0.996424,2.280564 1.501638,4.702414 1.501638,7.195755 0,1.424718 -0.168757,2.84503 -0.501014,4.221297 -0.323505,1.338997 -0.80386,2.645129 -1.428463,3.881906 -1.150122,2.279852 -3.013077,4.551778 -5.124434,6.252864" />
    <path
       d="m 73.992471,87.944071 c -0.221971,-0.13512 -0.980318,-0.681052 -1.719512,-1.672087 -0.70912,-0.946988 -1.54351,-2.517971 -1.499886,-4.62181 0.02735,-1.266186 0.289649,-2.499133 0.781209,-3.663167 0.487953,-1.154037 1.187758,-2.211479 2.079183,-3.141865 l 0.0054,-0.0072 c 0.06565,-0.07386 0.130627,-0.147384 0.196937,-0.22023 0.336461,-0.377779 0.684121,-0.767755 0.961448,-1.224138 0.34192,-0.561078 0.590815,-1.150617 0.738809,-1.753708 0.227713,-0.931402 0.241122,-1.920065 0.03732,-2.857905 -0.188046,-0.862285 -0.566868,-1.697803 -1.095854,-2.418123 -0.512461,-0.697959 -1.179884,-1.30681 -1.931121,-1.760145 -0.782959,-0.473324 -1.682435,-0.790117 -2.598613,-0.915817 -0.310199,-0.04304 -0.629818,-0.06504 -0.950908,-0.06504 -0.02203,0 -0.04666,0 -0.0688,0 -0.02201,0 -0.04488,0 -0.06826,0 -0.320423,0 -0.640708,0.02201 -0.949927,0.06504 -0.915652,0.1257 -1.814989,0.442493 -2.598787,0.915817 -0.7511,0.453335 -1.419886,1.062186 -1.931927,1.760145 -0.528847,0.72032 -0.905917,1.555838 -1.095609,2.418123 -0.203206,0.93784 -0.190917,1.926503 0.03844,2.857905 0.147435,0.603091 0.396331,1.19263 0.73755,1.753708 0.278725,0.456383 0.625863,0.846359 0.962428,1.224138 0.06617,0.07284 0.130592,0.146368 0.197464,0.22023 l 0.004,0.0072 c 0.89293,0.930386 1.592037,1.987828 2.080024,3.141865 0.491245,1.164034 0.75453,2.396981 0.780509,3.663167 0.04417,2.103839 -0.790347,3.674822 -1.49866,4.62181 -0.740701,0.991035 -1.498382,1.536967 -1.720598,1.672087 -0.371856,-0.09622 -0.742767,-0.20434 -1.107375,-0.322518 -1.097536,-0.356163 -2.166468,-0.811836 -3.182216,-1.357395 1.74619,-0.909109 2.856015,-2.683924 2.856015,-4.618219 0,-1.279941 -0.514071,-2.507739 -1.527649,-3.647547 -0.01502,-0.01734 -0.03063,-0.03138 -0.04226,-0.04276 -0.002,-0.003 -0.0053,-0.0047 -0.0079,-0.0077 -0.09957,-0.107201 -0.198166,-0.211896 -0.295146,-0.313811 -0.291155,-0.30944 -0.567149,-0.601837 -0.813594,-0.922017 -0.919609,-1.188564 -1.593297,-2.582448 -1.948872,-4.030206 -0.38649,-1.574134 -0.408126,-3.243816 -0.06292,-4.828453 0.317693,-1.460971 0.9598,-2.877895 1.854516,-4.096951 0.865552,-1.179417 1.99372,-2.207381 3.262183,-2.972764 1.328925,-0.802315 2.852198,-1.338658 4.404601,-1.55279 0.525732,-0.07318 1.064311,-0.108758 1.60233,-0.108758 0.02269,0 0.07549,0 0.07549,0 0.02216,0 0.04541,0 0.06809,0 0.538159,0 1.078243,0.03558 1.603274,0.108758 1.552964,0.214132 3.075397,0.750475 4.404462,1.55279 1.268462,0.765383 2.397052,1.793347 3.262741,2.972764 0.894157,1.219056 1.536265,2.63598 1.855218,4.096951 0.343951,1.584637 0.321787,3.254319 -0.06362,4.828453 -0.35652,1.447758 -1.029404,2.841642 -1.950235,4.030206 -0.246868,0.32018 -0.52174,0.612577 -0.814015,0.922017 -0.09572,0.101915 -0.193929,0.20661 -0.293746,0.313811 -0.0033,0.0025 -0.0057,0.005 -0.0092,0.0077 -0.01162,0.01138 -0.02804,0.02609 -0.04212,0.04503 -1.027372,1.189817 -1.52723,2.382682 -1.52723,3.645277 0,1.934295 1.109825,3.70911 2.857941,4.618218 -1.01617,0.54556 -2.085243,1.001232 -3.182777,1.357396 -0.36447,0.118177 -0.736885,0.226295 -1.10846,0.322518" />
    <path
       d="m 68.928151,73.955075 c -2.0788,0 -3.770969,-1.637154 -3.770969,-3.649376 0,-2.012563 1.692169,-3.649717 3.770969,-3.649717 2.078798,0 3.770127,1.637154 3.770127,3.649717 0,2.012222 -1.691329,3.649376 -3.770127,3.649376" />
  </g>
</svg>
